<svg xmlns="http://www.w3.org/2000/svg" width="51.89" height="51.89" viewBox="0 0 51.89 51.89">
  <g id="Group_37680" data-name="Group 37680" transform="translate(-2581 -8037)">
    <ellipse id="Ellipse_297" data-name="Ellipse 297" cx="21.567" cy="21.567" rx="21.567" ry="21.567" transform="translate(2581 8078.98) rotate(-76.717)" fill="#3c5a99"/>
    <path id="Path_5375" data-name="Path 5375" d="M205.083,300.989q-.021-.155-.043-.31a4.24,4.24,0,0,1,.273-1.87l.305.263c.675.558.109,1.285.261,1.914-.087,0-.174.008-.26.008Z" transform="translate(2401.422 7763.179)" fill="#a2b1ce"/>
    <path id="Path_5376" data-name="Path 5376" d="M205.964,299.865l-.424,1.056c-.189-.371-1.215-.741,0-1.114Z" transform="translate(2401.461 7762.718)" fill="#e8ecf3"/>
    <path id="Path_5377" data-name="Path 5377" d="M205.137,298.8l.535.006.262.822c-.291.193-.013.365.019.546l-.283.284a.534.534,0,0,0-.274.539C204.852,300.318,205.233,299.53,205.137,298.8Z" transform="translate(2401.396 7763.185)" fill="#a7b5d1"/>
    <path id="Path_5374" data-name="Path 5374" d="M196.888,289.206v13.209a.344.344,0,0,0,.344.344h4.905a.344.344,0,0,0,.344-.344V288.991h3.557a.344.344,0,0,0,.343-.315l.342-4.045a.344.344,0,0,0-.343-.373h-3.9v-2.869a1.218,1.218,0,0,1,1.218-1.218h2.741a.344.344,0,0,0,.344-.344v-4.045a.344.344,0,0,0-.344-.344h-4.631a4.921,4.921,0,0,0-4.921,4.921v3.9h-2.453a.344.344,0,0,0-.344.344v4.045a.344.344,0,0,0,.344.344h2.453Z" transform="translate(2406.483 7773.983)" fill="#fff" fill-rule="evenodd"/>
  </g>
</svg>
