<svg xmlns="http://www.w3.org/2000/svg" xmlns:xlink="http://www.w3.org/1999/xlink" width="56.357" height="56.357" viewBox="0 0 56.357 56.357">
  <defs>
    <linearGradient id="linear-gradient" x1="0.074" y1="0.926" x2="1.154" y2="-0.154" gradientUnits="objectBoundingBox">
      <stop offset="0.001" stop-color="#fbe18a"/>
      <stop offset="0.209" stop-color="#fcbb45"/>
      <stop offset="0.376" stop-color="#f75274"/>
      <stop offset="0.524" stop-color="#d53692"/>
      <stop offset="0.739" stop-color="#8f39ce"/>
      <stop offset="1" stop-color="#5b4fe9"/>
    </linearGradient>
  </defs>
  <g id="Group_37682" data-name="Group 37682" transform="translate(-2696 -8035)">
    <ellipse id="Ellipse_294" data-name="Ellipse 294" cx="21.567" cy="21.567" rx="21.567" ry="21.567" transform="translate(2696 8051.507) rotate(-22.5)" fill="url(#linear-gradient)"/>
    <g id="Group_37676" data-name="Group 37676" transform="translate(2709.958 8048.889)">
      <ellipse id="Ellipse_118" data-name="Ellipse 118" cx="1.675" cy="1.675" rx="1.675" ry="1.675" transform="translate(20.18 5.103)" fill="#fff"/>
      <path id="Path_66" data-name="Path 66" d="M327.539,287.753a7.038,7.038,0,1,0,7.038,7.038A7.047,7.047,0,0,0,327.539,287.753Zm0,11.547a4.508,4.508,0,1,1,4.508-4.508A4.513,4.513,0,0,1,327.539,299.3Z" transform="translate(-313.132 -280.502)" fill="#fff"/>
      <g id="Group_36577" data-name="Group 36577">
        <path id="Path_67" data-name="Path 67" d="M326.792,302.847h-11.41a8.594,8.594,0,0,1-8.584-8.584V282.852a8.594,8.594,0,0,1,8.584-8.584h11.41a8.6,8.6,0,0,1,8.585,8.584v11.411A8.6,8.6,0,0,1,326.792,302.847Zm-11.41-25.891a5.9,5.9,0,0,0-5.9,5.9v11.411a5.9,5.9,0,0,0,5.9,5.9h11.41a5.9,5.9,0,0,0,5.9-5.9V282.852a5.9,5.9,0,0,0-5.9-5.9Z" transform="translate(-306.798 -274.268)" fill="#fff"/>
      </g>
    </g>
  </g>
</svg>
