<svg xmlns="http://www.w3.org/2000/svg" width="51.25" height="51.25" viewBox="0 0 51.25 51.25">
  <g id="Group_37683" data-name="Group 37683" transform="translate(-2758 -8038)">
    <ellipse id="Ellipse_295" data-name="Ellipse 295" cx="21.567" cy="21.567" rx="21.567" ry="21.567" transform="translate(2758 8080.167) rotate(-77.844)" fill="#3cf"/>
    <g id="Group_37677" data-name="Group 37677" transform="translate(2770.259 8052.686)">
      <path id="Path_68" data-name="Path 68" d="M81.064,282.865a10.925,10.925,0,0,1-2.683.766c.432-.073,1.07-.855,1.324-1.172a4.932,4.932,0,0,0,.894-1.627c.023-.046.041-.1-.005-.14a.152.152,0,0,0-.142.012,13.721,13.721,0,0,1-3.188,1.22.214.214,0,0,1-.22-.058,2.548,2.548,0,0,0-.279-.285,5.634,5.634,0,0,0-1.544-.946,5.372,5.372,0,0,0-2.368-.381,5.658,5.658,0,0,0-2.247.635,5.781,5.781,0,0,0-1.813,1.48,5.571,5.571,0,0,0-1.082,2.168,5.869,5.869,0,0,0-.057,2.289c.017.128.006.145-.11.128-4.378-.652-8.007-2.218-10.953-5.575-.128-.146-.2-.146-.3.011-1.289,1.932-.664,5.037.946,6.562.215.2.436.407.673.592a5.59,5.59,0,0,1-2.113-.592c-.128-.081-.192-.034-.2.11a3.354,3.354,0,0,0,.034.628,5.616,5.616,0,0,0,3.461,4.477,3.3,3.3,0,0,0,.7.215,6.266,6.266,0,0,1-2.073.064c-.151-.029-.209.046-.151.191a5.833,5.833,0,0,0,4.356,3.647c.2.034.395.034.593.081-.012.018-.024.018-.035.035-.489.746-2.185,1.3-2.974,1.577a10.658,10.658,0,0,1-4.517.578c-.243-.035-.294-.033-.36,0s-.009.1.069.162c.308.2.622.383.941.558a14.931,14.931,0,0,0,3.02,1.208c5.427,1.5,11.539.4,15.614-3.651,3.2-3.18,4.321-7.564,4.321-11.953,0-.172.2-.267.324-.358a10.493,10.493,0,0,0,2.115-2.21.641.641,0,0,0,.131-.423v-.023C81.163,282.8,81.172,282.817,81.064,282.865Z" transform="translate(-54.599 -280.243)" fill="#fff"/>
      <path id="Path_69" data-name="Path 69" d="M69.27,321.013Z" transform="translate(-61.381 -299.09)" fill="#fff" fill-rule="evenodd"/>
      <path id="Path_70" data-name="Path 70" d="M69.1,321.013c-.035,0-.438,0,0,0Z" transform="translate(-61.206 -299.09)" fill="#fff" fill-rule="evenodd"/>
      <path id="Path_71" data-name="Path 71" d="M70.933,321.039c0-.045.471,0,0,0C70.933,321.016,70.991,321.039,70.933,321.039Z" transform="translate(-62.15 -299.092)" fill="#fff" fill-rule="evenodd"/>
      <path id="Path_72" data-name="Path 72" d="M88.312,280.557a.1.1,0,0,1-.11,0Z" transform="translate(-70.132 -280.388)" fill="#fff" fill-rule="evenodd"/>
    </g>
  </g>
</svg>
