<svg xmlns="http://www.w3.org/2000/svg" width="61.001" height="61.001" viewBox="0 0 61.001 61.001">
  <g id="Group_37684" data-name="Group 37684" transform="translate(-2809 -8033)">
    <circle id="Ellipse_296" data-name="Ellipse 296" cx="21.567" cy="21.567" r="21.567" transform="translate(2809 8063.5) rotate(-45)" fill="#60fc7c"/>
    <g id="Group_37678" data-name="Group 37678" transform="translate(2825.74 8049.74)">
      <path id="Path_63" data-name="Path 63" d="M194.11,174.723a13.758,13.758,0,0,0-11.563,21.217l-2.09,4.6a1.2,1.2,0,0,0,1.094,1.7,1.19,1.19,0,0,0,.318-.043l5.76-1.58a13.76,13.76,0,1,0,6.481-25.9Zm0,25.117a11.344,11.344,0,0,1-5.718-1.546,1.206,1.206,0,0,0-.924-.122L183.7,199.2l1.31-2.887a1.2,1.2,0,0,0-.12-1.2,11.355,11.355,0,1,1,9.215,4.722Z" transform="translate(-180.349 -174.723)" fill="#fff" fill-rule="evenodd"/>
      <path id="Path_64" data-name="Path 64" d="M205.48,196.971a2.353,2.353,0,0,0-2.005-.452c-.521.213-.853,1.028-1.191,1.445a.5.5,0,0,1-.646.14,9.08,9.08,0,0,1-4.532-3.882.556.556,0,0,1,.07-.759,3.065,3.065,0,0,0,.823-1.337,2.921,2.921,0,0,0-.368-1.582,3.752,3.752,0,0,0-1.168-1.761,1.6,1.6,0,0,0-1.738.259,3.529,3.529,0,0,0-1.223,2.8,3.964,3.964,0,0,0,.11.887,7.366,7.366,0,0,0,.851,1.961,15.514,15.514,0,0,0,.888,1.351,13.71,13.71,0,0,0,3.853,3.578,11.633,11.633,0,0,0,2.4,1.143,5.338,5.338,0,0,0,2.8.442,3.385,3.385,0,0,0,2.536-1.887,1.637,1.637,0,0,0,.118-.963C206.914,197.686,206.017,197.292,205.48,196.971Z" transform="translate(-186.429 -181.15)" fill="#fff" fill-rule="evenodd"/>
    </g>
  </g>
</svg>
