<svg xmlns="http://www.w3.org/2000/svg" width="61.001" height="61.001" viewBox="0 0 61.001 61.001">
  <g id="Group_37681" data-name="Group 37681" transform="translate(-2635 -8033)">
    <circle id="Ellipse_293" data-name="Ellipse 293" cx="21.567" cy="21.567" r="21.567" transform="translate(2635 8063.5) rotate(-45)" fill="red"/>
    <g id="Group_37679" data-name="Group 37679" transform="translate(2652.26 8054.191)">
      <path id="Path_65" data-name="Path 65" d="M334.887,188.853A5.853,5.853,0,0,0,329.033,183h-15.18A5.853,5.853,0,0,0,308,188.853v7.114a5.853,5.853,0,0,0,5.853,5.853h15.18a5.853,5.853,0,0,0,5.853-5.853Zm-9.578,3.916-6.054,3.32c-.263.142-.5-.048-.5-.347v-6.816c0-.3.244-.493.508-.343l6.1,3.5A.4.4,0,0,1,325.309,192.769Z" transform="translate(-308 -183)" fill="#fff"/>
    </g>
  </g>
</svg>
